<svg xmlns="http://www.w3.org/2000/svg" viewBox="0 0 512 512" width="512" height="512" role="img" aria-label="Mi Familia">
  <rect width="512" height="512" rx="112" fill="#0E7A66"/>
  <path d="M256 400c0 0-104-106-104-176a104 104 0 0 1 208 0c0 70-104 176-104 176z" fill="none" stroke="#fff" stroke-width="44" stroke-linejoin="round"/>
  <path transform="translate(190 148) scale(5.5)" d="M12 21.35l-1.45-1.32C5.4 15.36 2 12.28 2 8.5 2 5.42 4.42 3 7.5 3c1.74 0 3.41.81 4.5 2.09C13.09 3.81 14.76 3 16.5 3 19.58 3 22 5.42 22 8.5c0 3.78-3.4 6.86-8.55 11.54L12 21.35z" fill="#fff"/>
</svg>
